<?xml version="1.0" encoding="utf-8"?>
<!-- Generator: Adobe Illustrator 16.0.0, SVG Export Plug-In . SVG Version: 6.00 Build 0)  -->
<!DOCTYPE svg PUBLIC "-//W3C//DTD SVG 1.1//EN" "http://www.w3.org/Graphics/SVG/1.1/DTD/svg11.dtd">
<svg version="1.1" id="Layer_1" xmlns="http://www.w3.org/2000/svg" xmlns:xlink="http://www.w3.org/1999/xlink" x="0px" y="0px"
	 width="72px" height="19.199px" viewBox="0 0 72 19.199" enable-background="new 0 0 72 19.199" xml:space="preserve">
<g>
	<path fill="#FFFFFF" d="M71.245,5.862c-0.484-1.144-1.176-2.17-2.057-3.051s-1.908-1.572-3.051-2.057
		C64.952,0.254,63.695,0,62.399,0H56v19.199h6.399c1.296,0,2.553-0.254,3.738-0.755c1.143-0.483,2.17-1.176,3.051-2.057
		s1.572-1.907,2.057-3.051C71.746,12.151,72,10.896,72,9.599C72,8.304,71.746,7.048,71.245,5.862z M62.399,15.999H59.2V3.2h3.199
		c3.529,0,6.4,2.871,6.4,6.398C68.8,13.128,65.929,15.999,62.399,15.999z"/>
	<polygon fill="#FFFFFF" points="45.601,0 42.401,0 42.401,19.199 55.2,19.199 55.2,15.999 45.601,15.999 	"/>
	<path fill="#FFFFFF" d="M41.6,6.399c0-1.709-0.665-3.316-1.874-4.525S36.909,0,35.2,0h-6.4h-1.604h-1.709l-4.307,16.071L16.874,0
		h-3.313l5.145,19.199h1.637h1.676h1.637L27.942,3.2H35.2c1.765,0,3.2,1.436,3.2,3.199c0,1.765-1.436,3.199-3.2,3.199h-3.199
		l1.848,3.201l3.693,6.399h3.695l-3.904-6.763c0.891-0.313,1.706-0.824,2.393-1.512C40.935,9.716,41.6,8.109,41.6,6.399z"/>
	<polygon fill="#FFFFFF" points="11.927,0 7.62,16.071 3.313,0 0,0 5.146,19.199 6.782,19.199 8.458,19.199 10.095,19.199 
		14.019,4.55 12.8,0 	"/>
</g>
</svg>
